<?xml version="1.0" encoding="UTF-8"?>
<svg width="188" height="40" viewBox="0 0 188 40" xmlns="http://www.w3.org/2000/svg">
    <g fill="none" fill-rule="evenodd">
        <path d="M44.42 14.093c-1.574-2.524-3.728-3.901-7.05-4.592-.03-2.522-.803-4.025-1.574-5.298-2.637-4.355-8.432-5.298-12.242-2.958l-8.12 5.123-9.718 6.084-.012-.019c-4.177 2.613-6.953 7.765-3.725 13.168 2.43 4.012 8.21 6.293 12.96 3.276 1.38-.864 3.185-1.026 4.401.98 1.046 1.65.252 3.483-1.474 4.38L21.403 40c4.512-2.733 6.89-8.465 3.773-13.614-3.08-5.082-9.364-5.574-13.158-3.151-1.38.865-3.551.425-4.422-1.011-1.12-1.928-.198-3.475 1.314-4.421l-.008-.013 9.64-6.037 7.77-4.752c3.756-2.353 7.117 2.75 3.18 5.17l-1.958 1.27 3.207 5.293 3.478-2.133c3.458-2.165 6.76 2.834 3.058 5.199l-9.125 5.714 3.367 5.558 10.153-6.264c2.734-1.712 5.843-7.677 2.748-12.715" fill="#FF470B"/>
        <path d="M71.538 26.282c-.827 0-1.558-.117-2.192-.35-.634-.234-1.24-.612-1.818-1.136-.237-.205-.356-.438-.356-.7 0-.205.079-.39.237-.555a.753.753 0 0 1 .561-.247c.193 0 .357.063.493.188.453.42.92.731 1.401.93.482.2 1.028.299 1.64.299.713 0 1.316-.165 1.809-.495.493-.33.739-.746.739-1.246-.011-.592-.258-1.05-.739-1.375-.481-.324-1.215-.594-2.2-.81-1.167-.24-2.064-.632-2.693-1.179-.628-.546-.943-1.303-.943-2.27 0-.672.176-1.26.527-1.767.351-.507.838-.897 1.461-1.17.623-.273 1.325-.41 2.107-.41.702 0 1.364.114 1.987.342.623.227 1.127.53 1.512.905.26.227.391.472.391.734a.767.767 0 0 1-.23.546.738.738 0 0 1-.551.24.564.564 0 0 1-.391-.137c-.295-.296-.702-.547-1.223-.752a4.082 4.082 0 0 0-1.495-.307c-.76 0-1.362.157-1.81.47-.447.313-.67.725-.67 1.237 0 .558.223.985.67 1.28.448.297 1.113.547 1.997.752.883.193 1.605.421 2.166.683.56.262.993.626 1.3 1.092.305.467.458 1.076.458 1.827 0 .66-.184 1.247-.552 1.759-.368.512-.87.91-1.504 1.195a5.047 5.047 0 0 1-2.09.427zm14.508-4.644c0 .888-.198 1.684-.595 2.39a4.33 4.33 0 0 1-1.622 1.656 4.43 4.43 0 0 1-2.268.598 4.43 4.43 0 0 1-2.268-.598 4.33 4.33 0 0 1-1.622-1.656c-.397-.706-.595-1.502-.595-2.39 0-.888.198-1.69.595-2.407a4.299 4.299 0 0 1 1.622-1.673 4.43 4.43 0 0 1 2.268-.598c.827 0 1.583.2 2.268.598a4.299 4.299 0 0 1 1.622 1.673c.397.717.595 1.52.595 2.407zm-1.614 0c0-.615-.127-1.164-.382-1.648-.255-.483-.6-.859-1.037-1.126a2.723 2.723 0 0 0-1.452-.402c-.532 0-1.017.134-1.453.402a2.844 2.844 0 0 0-1.036 1.126c-.255.484-.382 1.033-.382 1.648 0 .603.127 1.144.382 1.622.255.478.6.85 1.036 1.118.436.267.92.401 1.453.401.532 0 1.016-.134 1.452-.401.437-.267.782-.64 1.037-1.118.255-.478.382-1.019.382-1.622zm7.356-4.678c.895 0 1.64.142 2.234.427.595.284.892.649.892 1.092a.805.805 0 0 1-.187.521.586.586 0 0 1-.476.23.743.743 0 0 1-.348-.068 3.83 3.83 0 0 1-.348-.222 1.828 1.828 0 0 0-.323-.239 2.216 2.216 0 0 0-.577-.17 3.81 3.81 0 0 0-.68-.069c-.589 0-1.11.137-1.563.41a2.786 2.786 0 0 0-1.053 1.135 3.47 3.47 0 0 0-.374 1.614c0 .603.122 1.144.365 1.622.244.478.586.853 1.028 1.126.442.274.946.41 1.512.41.589 0 1.065-.09 1.427-.273l.14-.09a5.25 5.25 0 0 0 .183-.132c.113-.09.212-.16.297-.205a.659.659 0 0 1 .314-.068c.227 0 .405.071.536.213a.79.79 0 0 1 .195.555c0 .24-.15.475-.45.709-.3.233-.702.424-1.206.572a5.735 5.735 0 0 1-1.623.222c-.86 0-1.62-.202-2.276-.606a4.053 4.053 0 0 1-1.52-1.674c-.358-.71-.536-1.505-.536-2.381 0-.877.187-1.67.56-2.382a4.191 4.191 0 0 1 1.564-1.673c.668-.404 1.432-.606 2.293-.606zm6.388 8.331a.807.807 0 0 1-.23.58.777.777 0 0 1-.586.24.757.757 0 0 1-.569-.24.807.807 0 0 1-.23-.58V17.9c0-.228.077-.421.23-.58a.757.757 0 0 1 .57-.24c.237 0 .433.08.586.24.152.159.229.352.229.58v7.392zm-.816-9.338c-.328 0-.563-.06-.705-.18-.141-.119-.212-.31-.212-.571v-.274c0-.273.076-.466.23-.58.152-.114.387-.17.704-.17.318 0 .547.059.688.178.142.12.213.31.213.572v.274c0 .273-.074.466-.221.58-.147.114-.38.17-.697.17zm10.363 1.092c.238 0 .434.077.587.23.152.155.229.357.229.607v7.41a.807.807 0 0 1-.23.58.777.777 0 0 1-.586.239.764.764 0 0 1-.577-.23.817.817 0 0 1-.221-.59v-.443c-.294.398-.697.736-1.206 1.015a3.38 3.38 0 0 1-1.648.419c-.77 0-1.47-.2-2.098-.598-.629-.398-1.121-.953-1.478-1.664-.357-.712-.535-1.511-.535-2.4 0-.887.178-1.687.535-2.398.357-.711.846-1.266 1.47-1.664a3.739 3.739 0 0 1 2.055-.598c.6 0 1.158.125 1.673.376.516.25.926.569 1.232.956v-.41c0-.24.074-.438.22-.598a.75.75 0 0 1 .578-.239zm-3.465 7.734c.532 0 1.005-.136 1.418-.41.414-.273.737-.648.969-1.126.232-.478.348-1.019.348-1.622 0-.592-.116-1.127-.348-1.605a2.828 2.828 0 0 0-.969-1.135 2.477 2.477 0 0 0-1.418-.419c-.533 0-1.005.137-1.419.41a2.765 2.765 0 0 0-.968 1.127c-.232.478-.348 1.019-.348 1.622 0 .603.116 1.144.348 1.622.232.478.555.853.968 1.126.414.274.886.41 1.419.41zm8.426.512c0 .228-.08.422-.238.58a.784.784 0 0 1-.577.24.757.757 0 0 1-.57-.24.807.807 0 0 1-.229-.58V14.297c0-.228.08-.421.238-.58a.784.784 0 0 1 .578-.24c.226 0 .416.08.569.24.153.159.23.352.23.58V25.29zm14.27-5.702a3.355 3.355 0 0 1 1.538 1.067c.402.495.603 1.141.603 1.938 0 1.263-.365 2.165-1.096 2.706-.73.54-1.622.81-2.675.81h-4.366a.784.784 0 0 1-.578-.238.792.792 0 0 1-.238-.58V14.98c0-.228.08-.422.238-.58a.784.784 0 0 1 .578-.24h4.366c1.03 0 1.815.256 2.353.768.538.513.807 1.252.807 2.22 0 .546-.13 1.033-.391 1.46-.26.426-.64.754-1.138.981zm-.22-2.185c0-.535-.145-.942-.433-1.22-.29-.28-.694-.42-1.215-.42h-3.211v3.33h3.245c.464-.011.85-.162 1.155-.452.306-.29.459-.703.459-1.238zm-1.427 7.136c.623 0 1.121-.162 1.495-.486.373-.325.56-.811.56-1.46 0-1.263-.713-1.895-2.14-1.895h-3.347v3.841h3.432zm10.159-7.58c.294 0 .55.077.764.23.216.154.323.345.323.572 0 .274-.07.481-.212.624a.703.703 0 0 1-.518.213c-.082 0-.196-.022-.343-.066l-.116-.036c-.238-.08-.425-.12-.56-.12-.352 0-.694.122-1.028.367-.335.245-.606.58-.816 1.007-.21.427-.314.902-.314 1.426v4.114a.807.807 0 0 1-.23.58.777.777 0 0 1-.586.24.764.764 0 0 1-.577-.23.817.817 0 0 1-.221-.59v-7.307c0-.227.076-.42.23-.58a.757.757 0 0 1 .568-.24c.238 0 .434.08.586.24.153.16.23.353.23.58v.871c.249-.558.623-1.01 1.121-1.357a2.998 2.998 0 0 1 1.699-.538zm11.009 4.678c0 .888-.199 1.684-.595 2.39a4.33 4.33 0 0 1-1.622 1.656 4.43 4.43 0 0 1-2.268.598 4.43 4.43 0 0 1-2.268-.598 4.33 4.33 0 0 1-1.623-1.656c-.396-.706-.594-1.502-.594-2.39 0-.888.198-1.69.594-2.407a4.299 4.299 0 0 1 1.623-1.673 4.43 4.43 0 0 1 2.268-.598c.826 0 1.582.2 2.268.598a4.299 4.299 0 0 1 1.622 1.673c.396.717.595 1.52.595 2.407zm-1.614 0c0-.615-.128-1.164-.383-1.648-.254-.483-.6-.859-1.036-1.126a2.723 2.723 0 0 0-1.452-.402c-.533 0-1.017.134-1.453.402a2.844 2.844 0 0 0-1.036 1.126c-.255.484-.383 1.033-.383 1.648 0 .603.128 1.144.383 1.622.255.478.6.85 1.036 1.118.436.267.92.401 1.453.401.532 0 1.016-.134 1.452-.401.436-.267.782-.64 1.036-1.118.255-.478.383-1.019.383-1.622zm5.895-2.885v5.087c0 .57.255.854.764.854.06 0 .135-.011.226-.034l.097-.026c.136-.04.243-.06.323-.06.147 0 .272.063.374.188a.733.733 0 0 1 .152.478c0 .24-.135.444-.407.615-.272.17-.578.256-.918.256-.373 0-.716-.04-1.028-.12-.311-.08-.588-.281-.832-.606-.243-.324-.365-.816-.365-1.476v-5.156h-.986a.731.731 0 0 1-.748-.751c.001-.217.072-.393.213-.53a.74.74 0 0 1 .535-.205h.986v-1.434c0-.227.076-.42.23-.58a.777.777 0 0 1 .585-.24c.227 0 .416.08.57.24.152.16.229.353.229.58v1.434h1.41a.731.731 0 0 1 .748.751c0 .217-.072.393-.213.53a.74.74 0 0 1-.535.205h-1.41zm8.477-1.742c1.993 0 2.99 1.24 2.99 3.722v4.558a.807.807 0 0 1-.23.58.777.777 0 0 1-.585.24.757.757 0 0 1-.57-.24.807.807 0 0 1-.229-.58v-4.558c0-1.48-.623-2.22-1.869-2.22-.668 0-1.223.214-1.665.64a2.11 2.11 0 0 0-.662 1.58v4.558a.807.807 0 0 1-.23.58.777.777 0 0 1-.586.24.764.764 0 0 1-.577-.23.817.817 0 0 1-.221-.59V14.297c0-.228.076-.421.23-.58a.757.757 0 0 1 .568-.24c.238 0 .434.08.587.24.152.159.229.352.229.58v4.32c.283-.445.68-.823 1.19-1.136a3.064 3.064 0 0 1 1.63-.47zm13.217 4.285a.731.731 0 0 1-.255.521.812.812 0 0 1-.56.214h-5.98c.079.83.393 1.496.943 1.997.549.5 1.22.751 2.013.751.543 0 .985-.08 1.325-.239.34-.16.64-.364.9-.614a.955.955 0 0 1 .493-.154c.193 0 .354.068.484.205a.67.67 0 0 1 .196.478.796.796 0 0 1-.25.564l-.09.085c-.329.33-.765.609-1.308.836a4.274 4.274 0 0 1-1.665.342c-.918 0-1.725-.194-2.421-.58a4.035 4.035 0 0 1-1.614-1.623c-.38-.694-.57-1.48-.57-2.356 0-.956.196-1.795.587-2.518.39-.723.906-1.278 1.546-1.665a3.92 3.92 0 0 1 2.064-.58c.725 0 1.404.188 2.039.563a4.27 4.27 0 0 1 1.529 1.554c.385.66.583 1.4.594 2.22zm-4.162-2.834c-.634 0-1.184.18-1.648.538-.464.359-.77.914-.917 1.665h5.011v-.137a2.088 2.088 0 0 0-.807-1.485 2.546 2.546 0 0 0-1.639-.58zm10.465-1.502c.294 0 .55.077.764.23.216.154.323.345.323.572 0 .274-.07.481-.212.624a.703.703 0 0 1-.518.213c-.082 0-.196-.022-.343-.066l-.116-.036c-.238-.08-.425-.12-.56-.12-.352 0-.694.122-1.028.367-.334.245-.606.58-.816 1.007-.21.427-.314.902-.314 1.426v4.114a.807.807 0 0 1-.23.58.777.777 0 0 1-.586.24.764.764 0 0 1-.577-.23.817.817 0 0 1-.221-.59v-7.307c0-.227.076-.42.23-.58a.757.757 0 0 1 .568-.24c.238 0 .434.08.587.24.152.16.229.353.229.58v.871c.25-.558.623-1.01 1.121-1.357a2.998 2.998 0 0 1 1.699-.538zm2.073 7.75a.858.858 0 0 1-.153-.46c0-.228.119-.421.356-.58a.662.662 0 0 1 .391-.12c.204 0 .391.085.56.256.34.387.706.677 1.097.87.39.194.858.291 1.401.291.43-.011.81-.11 1.138-.299.329-.188.493-.492.493-.913a.982.982 0 0 0-.501-.888c-.292-.18-.704-.345-1.235-.498l-.235-.065a10.79 10.79 0 0 1-1.58-.538 2.833 2.833 0 0 1-1.061-.82c-.29-.358-.434-.828-.434-1.408 0-.512.145-.962.434-1.349a2.881 2.881 0 0 1 1.155-.905 3.79 3.79 0 0 1 1.571-.324c.544 0 1.085.102 1.623.307.538.205.977.518 1.316.94.136.159.204.324.204.494 0 .183-.09.359-.272.53a.61.61 0 0 1-.424.153.635.635 0 0 1-.493-.205 2.39 2.39 0 0 0-.875-.631 2.883 2.883 0 0 0-1.147-.222c-.43 0-.795.088-1.095.264-.3.177-.45.476-.45.897.01.398.183.694.518.888.292.169.72.334 1.286.494l.251.069c.6.16 1.099.33 1.495.512.396.182.73.453 1.002.811.272.359.408.828.408 1.409 0 .534-.153.998-.459 1.39a2.959 2.959 0 0 1-1.197.906 3.956 3.956 0 0 1-1.572.316 5.132 5.132 0 0 1-1.979-.376 3.693 3.693 0 0 1-1.537-1.195z" fill="#000" fill-rule="nonzero"/>
    </g>
</svg>
